<svg xmlns="http://www.w3.org/2000/svg" version="1.1" xmlns:xlink="http://www.w3.org/1999/xlink" xmlns:svgjs="http://svgjs.dev/svgjs" width="1440" height="560" preserveAspectRatio="none" viewBox="0 0 1440 560"><g mask="url(&quot;#SvgjsMask1014&quot;)" fill="none"><rect width="1440" height="560" x="0" y="0" fill="rgba(31, 31, 31, 1)"></rect><path d="M-54.13 384.88L-54.13 384.88" stroke="rgba(53, 53, 53, 1)" stroke-width="1.5"></path><path d="M-54.13 384.88L-54.65 501.82" stroke="rgba(53, 53, 53, 1)" stroke-width="1.5"></path><path d="M-54.13 384.88L88.76 343.26" stroke="rgba(53, 53, 53, 1)" stroke-width="1.5"></path><path d="M-54.13 384.88L99.63 525.39" stroke="rgba(53, 53, 53, 1)" stroke-width="1.5"></path><path d="M-54.13 384.88L201.83 390.11" stroke="rgba(53, 53, 53, 1)" stroke-width="1.5"></path><path d="M-54.13 384.88L39.64 651.1" stroke="rgba(53, 53, 53, 1)" stroke-width="1.5"></path><path d="M-54.13 384.88L196.58 530.25" stroke="rgba(53, 53, 53, 1)" stroke-width="1.5"></path><path d="M-54.65 501.82L-54.65 501.82" stroke="rgba(53, 53, 53, 1)" stroke-width="1.5"></path><path d="M-54.65 501.82L99.63 525.39" stroke="rgba(53, 53, 53, 1)" stroke-width="1.5"></path><path d="M-39.37 678.5L-39.37 678.5" stroke="rgba(53, 53, 53, 1)" stroke-width="1.5"></path><path d="M-39.37 678.5L39.64 651.1" stroke="rgba(53, 53, 53, 1)" stroke-width="1.5"></path><path d="M-39.37 678.5L-54.65 501.82" stroke="rgba(53, 53, 53, 1)" stroke-width="1.5"></path><path d="M-39.37 678.5L99.63 525.39" stroke="rgba(53, 53, 53, 1)" stroke-width="1.5"></path><path d="M88.76 343.26L88.76 343.26" stroke="rgba(53, 53, 53, 1)" stroke-width="1.5"></path><path d="M88.76 343.26L201.83 390.11" stroke="rgba(53, 53, 53, 1)" stroke-width="1.5"></path><path d="M88.76 343.26L99.63 525.39" stroke="rgba(53, 53, 53, 1)" stroke-width="1.5"></path><path d="M88.76 343.26L-54.65 501.82" stroke="rgba(53, 53, 53, 1)" stroke-width="1.5"></path><path d="M88.76 343.26L196.58 530.25" stroke="rgba(53, 53, 53, 1)" stroke-width="1.5"></path><path d="M99.63 525.39L99.63 525.39" stroke="rgba(53, 53, 53, 1)" stroke-width="1.5"></path><path d="M99.63 525.39L196.58 530.25" stroke="rgba(53, 53, 53, 1)" stroke-width="1.5"></path><path d="M99.63 525.39L39.64 651.1" stroke="rgba(53, 53, 53, 1)" stroke-width="1.5"></path><path d="M99.63 525.39L214.81 640.64" stroke="rgba(53, 53, 53, 1)" stroke-width="1.5"></path><path d="M99.63 525.39L201.83 390.11" stroke="rgba(53, 53, 53, 1)" stroke-width="1.5"></path><path d="M39.64 651.1L39.64 651.1" stroke="rgba(53, 53, 53, 1)" stroke-width="1.5"></path><path d="M39.64 651.1L214.81 640.64" stroke="rgba(53, 53, 53, 1)" stroke-width="1.5"></path><path d="M201.83 390.11L201.83 390.11" stroke="rgba(53, 53, 53, 1)" stroke-width="1.5"></path><path d="M201.83 390.11L196.58 530.25" stroke="rgba(53, 53, 53, 1)" stroke-width="1.5"></path><path d="M201.83 390.11L372.8 367.32" stroke="rgba(53, 53, 53, 1)" stroke-width="1.5"></path><path d="M196.58 530.25L196.58 530.25" stroke="rgba(53, 53, 53, 1)" stroke-width="1.5"></path><path d="M196.58 530.25L214.81 640.64" stroke="rgba(53, 53, 53, 1)" stroke-width="1.5"></path><path d="M196.58 530.25L39.64 651.1" stroke="rgba(53, 53, 53, 1)" stroke-width="1.5"></path><path d="M196.58 530.25L372.08 648.43" stroke="rgba(53, 53, 53, 1)" stroke-width="1.5"></path><path d="M196.58 530.25L411.16 509.9" stroke="rgba(53, 53, 53, 1)" stroke-width="1.5"></path><path d="M214.81 640.64L214.81 640.64" stroke="rgba(53, 53, 53, 1)" stroke-width="1.5"></path><path d="M214.81 640.64L372.08 648.43" stroke="rgba(53, 53, 53, 1)" stroke-width="1.5"></path><path d="M372.8 367.32L372.8 367.32" stroke="rgba(53, 53, 53, 1)" stroke-width="1.5"></path><path d="M372.8 367.32L411.16 509.9" stroke="rgba(53, 53, 53, 1)" stroke-width="1.5"></path><path d="M372.8 367.32L538.47 350.4" stroke="rgba(53, 53, 53, 1)" stroke-width="1.5"></path><path d="M372.8 367.32L196.58 530.25" stroke="rgba(53, 53, 53, 1)" stroke-width="1.5"></path><path d="M372.8 367.32L557.04 532.81" stroke="rgba(53, 53, 53, 1)" stroke-width="1.5"></path><path d="M372.8 367.32L372.08 648.43" stroke="rgba(53, 53, 53, 1)" stroke-width="1.5"></path><path d="M411.16 509.9L411.16 509.9" stroke="rgba(53, 53, 53, 1)" stroke-width="1.5"></path><path d="M411.16 509.9L372.08 648.43" stroke="rgba(53, 53, 53, 1)" stroke-width="1.5"></path><path d="M411.16 509.9L557.04 532.81" stroke="rgba(53, 53, 53, 1)" stroke-width="1.5"></path><path d="M411.16 509.9L538.47 350.4" stroke="rgba(53, 53, 53, 1)" stroke-width="1.5"></path><path d="M411.16 509.9L546.58 697.67" stroke="rgba(53, 53, 53, 1)" stroke-width="1.5"></path><path d="M372.08 648.43L372.08 648.43" stroke="rgba(53, 53, 53, 1)" stroke-width="1.5"></path><path d="M538.47 350.4L538.47 350.4" stroke="rgba(53, 53, 53, 1)" stroke-width="1.5"></path><path d="M538.47 350.4L666.17 341.48" stroke="rgba(53, 53, 53, 1)" stroke-width="1.5"></path><path d="M538.47 350.4L637.82 254.56" stroke="rgba(53, 53, 53, 1)" stroke-width="1.5"></path><path d="M557.04 532.81L557.04 532.81" stroke="rgba(53, 53, 53, 1)" stroke-width="1.5"></path><path d="M557.04 532.81L657.78 527.59" stroke="rgba(53, 53, 53, 1)" stroke-width="1.5"></path><path d="M557.04 532.81L645.66 663.84" stroke="rgba(53, 53, 53, 1)" stroke-width="1.5"></path><path d="M557.04 532.81L546.58 697.67" stroke="rgba(53, 53, 53, 1)" stroke-width="1.5"></path><path d="M557.04 532.81L538.47 350.4" stroke="rgba(53, 53, 53, 1)" stroke-width="1.5"></path><path d="M546.58 697.67L546.58 697.67" stroke="rgba(53, 53, 53, 1)" stroke-width="1.5"></path><path d="M546.58 697.67L645.66 663.84" stroke="rgba(53, 53, 53, 1)" stroke-width="1.5"></path><path d="M546.58 697.67L372.08 648.43" stroke="rgba(53, 53, 53, 1)" stroke-width="1.5"></path><path d="M546.58 697.67L657.78 527.59" stroke="rgba(53, 53, 53, 1)" stroke-width="1.5"></path><path d="M546.58 697.67L805.35 641.4" stroke="rgba(53, 53, 53, 1)" stroke-width="1.5"></path><path d="M637.82 254.56L637.82 254.56" stroke="rgba(53, 53, 53, 1)" stroke-width="1.5"></path><path d="M637.82 254.56L666.17 341.48" stroke="rgba(53, 53, 53, 1)" stroke-width="1.5"></path><path d="M637.82 254.56L808.14 236.66" stroke="rgba(53, 53, 53, 1)" stroke-width="1.5"></path><path d="M637.82 254.56L802.73 360.99" stroke="rgba(53, 53, 53, 1)" stroke-width="1.5"></path><path d="M637.82 254.56L657.78 527.59" stroke="rgba(53, 53, 53, 1)" stroke-width="1.5"></path><path d="M666.17 341.48L666.17 341.48" stroke="rgba(53, 53, 53, 1)" stroke-width="1.5"></path><path d="M657.78 527.59L657.78 527.59" stroke="rgba(53, 53, 53, 1)" stroke-width="1.5"></path><path d="M657.78 527.59L645.66 663.84" stroke="rgba(53, 53, 53, 1)" stroke-width="1.5"></path><path d="M657.78 527.59L666.17 341.48" stroke="rgba(53, 53, 53, 1)" stroke-width="1.5"></path><path d="M657.78 527.59L805.35 641.4" stroke="rgba(53, 53, 53, 1)" stroke-width="1.5"></path><path d="M645.66 663.84L645.66 663.84" stroke="rgba(53, 53, 53, 1)" stroke-width="1.5"></path><path d="M645.66 663.84L805.35 641.4" stroke="rgba(53, 53, 53, 1)" stroke-width="1.5"></path><path d="M808.14 236.66L808.14 236.66" stroke="rgba(53, 53, 53, 1)" stroke-width="1.5"></path><path d="M808.14 236.66L802.73 360.99" stroke="rgba(53, 53, 53, 1)" stroke-width="1.5"></path><path d="M808.14 236.66L666.17 341.48" stroke="rgba(53, 53, 53, 1)" stroke-width="1.5"></path><path d="M802.73 360.99L802.73 360.99" stroke="rgba(53, 53, 53, 1)" stroke-width="1.5"></path><path d="M802.73 360.99L666.17 341.48" stroke="rgba(53, 53, 53, 1)" stroke-width="1.5"></path><path d="M802.73 360.99L944.55 378.43" stroke="rgba(53, 53, 53, 1)" stroke-width="1.5"></path><path d="M805.35 641.4L805.35 641.4" stroke="rgba(53, 53, 53, 1)" stroke-width="1.5"></path><path d="M805.35 641.4L973.26 667.45" stroke="rgba(53, 53, 53, 1)" stroke-width="1.5"></path><path d="M805.35 641.4L956.7 498.87" stroke="rgba(53, 53, 53, 1)" stroke-width="1.5"></path><path d="M993.7 -39.31L993.7 -39.31" stroke="rgba(53, 53, 53, 1)" stroke-width="1.5"></path><path d="M993.7 -39.31L982.05 78.26" stroke="rgba(53, 53, 53, 1)" stroke-width="1.5"></path><path d="M993.7 -39.31L1143.34 -38.4" stroke="rgba(53, 53, 53, 1)" stroke-width="1.5"></path><path d="M993.7 -39.31L1143.05 50.25" stroke="rgba(53, 53, 53, 1)" stroke-width="1.5"></path><path d="M993.7 -39.31L1003.1 193.11" stroke="rgba(53, 53, 53, 1)" stroke-width="1.5"></path><path d="M982.05 78.26L982.05 78.26" stroke="rgba(53, 53, 53, 1)" stroke-width="1.5"></path><path d="M982.05 78.26L1003.1 193.11" stroke="rgba(53, 53, 53, 1)" stroke-width="1.5"></path><path d="M982.05 78.26L1143.05 50.25" stroke="rgba(53, 53, 53, 1)" stroke-width="1.5"></path><path d="M982.05 78.26L1143.34 -38.4" stroke="rgba(53, 53, 53, 1)" stroke-width="1.5"></path><path d="M1003.1 193.11L1003.1 193.11" stroke="rgba(53, 53, 53, 1)" stroke-width="1.5"></path><path d="M1003.1 193.11L1121.31 229.7" stroke="rgba(53, 53, 53, 1)" stroke-width="1.5"></path><path d="M1003.1 193.11L1115.18 351.65" stroke="rgba(53, 53, 53, 1)" stroke-width="1.5"></path><path d="M944.55 378.43L944.55 378.43" stroke="rgba(53, 53, 53, 1)" stroke-width="1.5"></path><path d="M944.55 378.43L956.7 498.87" stroke="rgba(53, 53, 53, 1)" stroke-width="1.5"></path><path d="M944.55 378.43L1115.18 351.65" stroke="rgba(53, 53, 53, 1)" stroke-width="1.5"></path><path d="M944.55 378.43L1003.1 193.11" stroke="rgba(53, 53, 53, 1)" stroke-width="1.5"></path><path d="M944.55 378.43L808.14 236.66" stroke="rgba(53, 53, 53, 1)" stroke-width="1.5"></path><path d="M944.55 378.43L1121.31 229.7" stroke="rgba(53, 53, 53, 1)" stroke-width="1.5"></path><path d="M956.7 498.87L956.7 498.87" stroke="rgba(53, 53, 53, 1)" stroke-width="1.5"></path><path d="M956.7 498.87L1108.82 545.82" stroke="rgba(53, 53, 53, 1)" stroke-width="1.5"></path><path d="M956.7 498.87L973.26 667.45" stroke="rgba(53, 53, 53, 1)" stroke-width="1.5"></path><path d="M956.7 498.87L1092.53 650.28" stroke="rgba(53, 53, 53, 1)" stroke-width="1.5"></path><path d="M956.7 498.87L802.73 360.99" stroke="rgba(53, 53, 53, 1)" stroke-width="1.5"></path><path d="M973.26 667.45L973.26 667.45" stroke="rgba(53, 53, 53, 1)" stroke-width="1.5"></path><path d="M973.26 667.45L1092.53 650.28" stroke="rgba(53, 53, 53, 1)" stroke-width="1.5"></path><path d="M973.26 667.45L1108.82 545.82" stroke="rgba(53, 53, 53, 1)" stroke-width="1.5"></path><path d="M973.26 667.45L944.55 378.43" stroke="rgba(53, 53, 53, 1)" stroke-width="1.5"></path><path d="M1143.34 -38.4L1143.34 -38.4" stroke="rgba(53, 53, 53, 1)" stroke-width="1.5"></path><path d="M1143.34 -38.4L1143.05 50.25" stroke="rgba(53, 53, 53, 1)" stroke-width="1.5"></path><path d="M1143.34 -38.4L1247.02 -55.82" stroke="rgba(53, 53, 53, 1)" stroke-width="1.5"></path><path d="M1143.34 -38.4L1251.28 92.62" stroke="rgba(53, 53, 53, 1)" stroke-width="1.5"></path><path d="M1143.05 50.25L1143.05 50.25" stroke="rgba(53, 53, 53, 1)" stroke-width="1.5"></path><path d="M1143.05 50.25L1251.28 92.62" stroke="rgba(53, 53, 53, 1)" stroke-width="1.5"></path><path d="M1121.31 229.7L1121.31 229.7" stroke="rgba(53, 53, 53, 1)" stroke-width="1.5"></path><path d="M1121.31 229.7L1115.18 351.65" stroke="rgba(53, 53, 53, 1)" stroke-width="1.5"></path><path d="M1121.31 229.7L1143.05 50.25" stroke="rgba(53, 53, 53, 1)" stroke-width="1.5"></path><path d="M1115.18 351.65L1115.18 351.65" stroke="rgba(53, 53, 53, 1)" stroke-width="1.5"></path><path d="M1115.18 351.65L1286.13 367.46" stroke="rgba(53, 53, 53, 1)" stroke-width="1.5"></path><path d="M1115.18 351.65L1108.82 545.82" stroke="rgba(53, 53, 53, 1)" stroke-width="1.5"></path><path d="M1115.18 351.65L956.7 498.87" stroke="rgba(53, 53, 53, 1)" stroke-width="1.5"></path><path d="M1108.82 545.82L1108.82 545.82" stroke="rgba(53, 53, 53, 1)" stroke-width="1.5"></path><path d="M1108.82 545.82L1092.53 650.28" stroke="rgba(53, 53, 53, 1)" stroke-width="1.5"></path><path d="M1108.82 545.82L1268.26 639.59" stroke="rgba(53, 53, 53, 1)" stroke-width="1.5"></path><path d="M1092.53 650.28L1092.53 650.28" stroke="rgba(53, 53, 53, 1)" stroke-width="1.5"></path><path d="M1092.53 650.28L1268.26 639.59" stroke="rgba(53, 53, 53, 1)" stroke-width="1.5"></path><path d="M1092.53 650.28L1306.79 515.43" stroke="rgba(53, 53, 53, 1)" stroke-width="1.5"></path><path d="M1092.53 650.28L805.35 641.4" stroke="rgba(53, 53, 53, 1)" stroke-width="1.5"></path><path d="M1247.02 -55.82L1247.02 -55.82" stroke="rgba(53, 53, 53, 1)" stroke-width="1.5"></path><path d="M1247.02 -55.82L1251.28 92.62" stroke="rgba(53, 53, 53, 1)" stroke-width="1.5"></path><path d="M1247.02 -55.82L1143.05 50.25" stroke="rgba(53, 53, 53, 1)" stroke-width="1.5"></path><path d="M1251.28 92.62L1251.28 92.62" stroke="rgba(53, 53, 53, 1)" stroke-width="1.5"></path><path d="M1286.13 367.46L1286.13 367.46" stroke="rgba(53, 53, 53, 1)" stroke-width="1.5"></path><path d="M1286.13 367.46L1403.76 341.68" stroke="rgba(53, 53, 53, 1)" stroke-width="1.5"></path><path d="M1286.13 367.46L1306.79 515.43" stroke="rgba(53, 53, 53, 1)" stroke-width="1.5"></path><path d="M1306.79 515.43L1306.79 515.43" stroke="rgba(53, 53, 53, 1)" stroke-width="1.5"></path><path d="M1306.79 515.43L1268.26 639.59" stroke="rgba(53, 53, 53, 1)" stroke-width="1.5"></path><path d="M1306.79 515.43L1460.15 523.52" stroke="rgba(53, 53, 53, 1)" stroke-width="1.5"></path><path d="M1306.79 515.43L1403.76 341.68" stroke="rgba(53, 53, 53, 1)" stroke-width="1.5"></path><path d="M1306.79 515.43L1108.82 545.82" stroke="rgba(53, 53, 53, 1)" stroke-width="1.5"></path><path d="M1268.26 639.59L1268.26 639.59" stroke="rgba(53, 53, 53, 1)" stroke-width="1.5"></path><path d="M1268.26 639.59L1458.36 658.58" stroke="rgba(53, 53, 53, 1)" stroke-width="1.5"></path><path d="M1405.25 -61.68L1405.25 -61.68" stroke="rgba(53, 53, 53, 1)" stroke-width="1.5"></path><path d="M1405.25 -61.68L1461.78 41.45" stroke="rgba(53, 53, 53, 1)" stroke-width="1.5"></path><path d="M1461.78 41.45L1461.78 41.45" stroke="rgba(53, 53, 53, 1)" stroke-width="1.5"></path><path d="M1461.78 41.45L1571.92 96.83" stroke="rgba(53, 53, 53, 1)" stroke-width="1.5"></path><path d="M1461.78 41.45L1551.12 -45.81" stroke="rgba(53, 53, 53, 1)" stroke-width="1.5"></path><path d="M1461.78 41.45L1251.28 92.62" stroke="rgba(53, 53, 53, 1)" stroke-width="1.5"></path><path d="M1461.78 41.45L1559.16 249.19" stroke="rgba(53, 53, 53, 1)" stroke-width="1.5"></path><path d="M1461.78 41.45L1247.02 -55.82" stroke="rgba(53, 53, 53, 1)" stroke-width="1.5"></path><path d="M1403.76 341.68L1403.76 341.68" stroke="rgba(53, 53, 53, 1)" stroke-width="1.5"></path><path d="M1403.76 341.68L1569.29 404.02" stroke="rgba(53, 53, 53, 1)" stroke-width="1.5"></path><path d="M1403.76 341.68L1559.16 249.19" stroke="rgba(53, 53, 53, 1)" stroke-width="1.5"></path><path d="M1403.76 341.68L1460.15 523.52" stroke="rgba(53, 53, 53, 1)" stroke-width="1.5"></path><path d="M1460.15 523.52L1460.15 523.52" stroke="rgba(53, 53, 53, 1)" stroke-width="1.5"></path><path d="M1460.15 523.52L1541.93 549.78" stroke="rgba(53, 53, 53, 1)" stroke-width="1.5"></path><path d="M1460.15 523.52L1458.36 658.58" stroke="rgba(53, 53, 53, 1)" stroke-width="1.5"></path><path d="M1460.15 523.52L1569.29 404.02" stroke="rgba(53, 53, 53, 1)" stroke-width="1.5"></path><path d="M1460.15 523.52L1579.53 654.27" stroke="rgba(53, 53, 53, 1)" stroke-width="1.5"></path><path d="M1458.36 658.58L1458.36 658.58" stroke="rgba(53, 53, 53, 1)" stroke-width="1.5"></path><path d="M1458.36 658.58L1579.53 654.27" stroke="rgba(53, 53, 53, 1)" stroke-width="1.5"></path><path d="M1551.12 -45.81L1551.12 -45.81" stroke="rgba(53, 53, 53, 1)" stroke-width="1.5"></path><path d="M1551.12 -45.81L1571.92 96.83" stroke="rgba(53, 53, 53, 1)" stroke-width="1.5"></path><path d="M1551.12 -45.81L1405.25 -61.68" stroke="rgba(53, 53, 53, 1)" stroke-width="1.5"></path><path d="M1571.92 96.83L1571.92 96.83" stroke="rgba(53, 53, 53, 1)" stroke-width="1.5"></path><path d="M1571.92 96.83L1559.16 249.19" stroke="rgba(53, 53, 53, 1)" stroke-width="1.5"></path><path d="M1571.92 96.83L1405.25 -61.68" stroke="rgba(53, 53, 53, 1)" stroke-width="1.5"></path><path d="M1571.92 96.83L1403.76 341.68" stroke="rgba(53, 53, 53, 1)" stroke-width="1.5"></path><path d="M1559.16 249.19L1559.16 249.19" stroke="rgba(53, 53, 53, 1)" stroke-width="1.5"></path><path d="M1559.16 249.19L1569.29 404.02" stroke="rgba(53, 53, 53, 1)" stroke-width="1.5"></path><path d="M1569.29 404.02L1569.29 404.02" stroke="rgba(53, 53, 53, 1)" stroke-width="1.5"></path><path d="M1569.29 404.02L1541.93 549.78" stroke="rgba(53, 53, 53, 1)" stroke-width="1.5"></path><path d="M1541.93 549.78L1541.93 549.78" stroke="rgba(53, 53, 53, 1)" stroke-width="1.5"></path><path d="M1541.93 549.78L1579.53 654.27" stroke="rgba(53, 53, 53, 1)" stroke-width="1.5"></path><path d="M1541.93 549.78L1458.36 658.58" stroke="rgba(53, 53, 53, 1)" stroke-width="1.5"></path><path d="M1541.93 549.78L1306.79 515.43" stroke="rgba(53, 53, 53, 1)" stroke-width="1.5"></path><path d="M1579.53 654.27L1579.53 654.27" stroke="rgba(53, 53, 53, 1)" stroke-width="1.5"></path><path d="M1579.53 654.27L1569.29 404.02" stroke="rgba(53, 53, 53, 1)" stroke-width="1.5"></path><path d="M1579.53 654.27L1306.79 515.43" stroke="rgba(53, 53, 53, 1)" stroke-width="1.5"></path><path d="M1579.53 654.27L1268.26 639.59" stroke="rgba(53, 53, 53, 1)" stroke-width="1.5"></path><circle r="5" cx="-54.13" cy="384.88" fill="rgba(53, 53, 53, 1)"></circle><circle r="5" cx="-54.65" cy="501.82" fill="rgba(53, 53, 53, 1)"></circle><circle r="5" cx="-39.37" cy="678.5" fill="rgba(53, 53, 53, 1)"></circle><circle r="5" cx="88.76" cy="343.26" fill="rgba(53, 53, 53, 1)"></circle><circle r="5" cx="99.63" cy="525.39" fill="rgba(53, 53, 53, 1)"></circle><circle r="5" cx="39.64" cy="651.1" fill="rgba(53, 53, 53, 1)"></circle><circle r="5" cx="201.83" cy="390.11" fill="rgba(53, 53, 53, 1)"></circle><circle r="5" cx="196.58" cy="530.25" fill="rgba(53, 53, 53, 1)"></circle><circle r="5" cx="214.81" cy="640.64" fill="rgba(53, 53, 53, 1)"></circle><circle r="5" cx="372.8" cy="367.32" fill="rgba(53, 53, 53, 1)"></circle><circle r="5" cx="411.16" cy="509.9" fill="rgba(53, 53, 53, 1)"></circle><circle r="5" cx="372.08" cy="648.43" fill="rgba(53, 53, 53, 1)"></circle><circle r="5" cx="538.47" cy="350.4" fill="rgba(53, 53, 53, 1)"></circle><circle r="5" cx="557.04" cy="532.81" fill="rgba(53, 53, 53, 1)"></circle><circle r="5" cx="546.58" cy="697.67" fill="rgba(53, 53, 53, 1)"></circle><circle r="5" cx="637.82" cy="254.56" fill="rgba(53, 53, 53, 1)"></circle><circle r="5" cx="666.17" cy="341.48" fill="rgba(53, 53, 53, 1)"></circle><circle r="5" cx="657.78" cy="527.59" fill="rgba(53, 53, 53, 1)"></circle><circle r="5" cx="645.66" cy="663.84" fill="rgba(53, 53, 53, 1)"></circle><circle r="5" cx="808.14" cy="236.66" fill="rgba(53, 53, 53, 1)"></circle><circle r="5" cx="802.73" cy="360.99" fill="rgba(53, 53, 53, 1)"></circle><circle r="5" cx="805.35" cy="641.4" fill="rgba(53, 53, 53, 1)"></circle><circle r="5" cx="993.7" cy="-39.31" fill="rgba(53, 53, 53, 1)"></circle><circle r="5" cx="982.05" cy="78.26" fill="rgba(53, 53, 53, 1)"></circle><circle r="5" cx="1003.1" cy="193.11" fill="rgba(53, 53, 53, 1)"></circle><circle r="5" cx="944.55" cy="378.43" fill="rgba(53, 53, 53, 1)"></circle><circle r="5" cx="956.7" cy="498.87" fill="rgba(53, 53, 53, 1)"></circle><circle r="5" cx="973.26" cy="667.45" fill="rgba(53, 53, 53, 1)"></circle><circle r="5" cx="1143.34" cy="-38.4" fill="rgba(53, 53, 53, 1)"></circle><circle r="5" cx="1143.05" cy="50.25" fill="rgba(53, 53, 53, 1)"></circle><circle r="5" cx="1121.31" cy="229.7" fill="rgba(53, 53, 53, 1)"></circle><circle r="5" cx="1115.18" cy="351.65" fill="rgba(53, 53, 53, 1)"></circle><circle r="5" cx="1108.82" cy="545.82" fill="rgba(53, 53, 53, 1)"></circle><circle r="5" cx="1092.53" cy="650.28" fill="rgba(53, 53, 53, 1)"></circle><circle r="5" cx="1247.02" cy="-55.82" fill="rgba(53, 53, 53, 1)"></circle><circle r="5" cx="1251.28" cy="92.62" fill="rgba(53, 53, 53, 1)"></circle><circle r="5" cx="1286.13" cy="367.46" fill="rgba(53, 53, 53, 1)"></circle><circle r="5" cx="1306.79" cy="515.43" fill="rgba(53, 53, 53, 1)"></circle><circle r="5" cx="1268.26" cy="639.59" fill="rgba(53, 53, 53, 1)"></circle><circle r="5" cx="1405.25" cy="-61.68" fill="rgba(53, 53, 53, 1)"></circle><circle r="5" cx="1461.78" cy="41.45" fill="rgba(53, 53, 53, 1)"></circle><circle r="5" cx="1403.76" cy="341.68" fill="rgba(53, 53, 53, 1)"></circle><circle r="5" cx="1460.15" cy="523.52" fill="rgba(53, 53, 53, 1)"></circle><circle r="5" cx="1458.36" cy="658.58" fill="rgba(53, 53, 53, 1)"></circle><circle r="5" cx="1551.12" cy="-45.81" fill="rgba(53, 53, 53, 1)"></circle><circle r="5" cx="1571.92" cy="96.83" fill="rgba(53, 53, 53, 1)"></circle><circle r="5" cx="1559.16" cy="249.19" fill="rgba(53, 53, 53, 1)"></circle><circle r="5" cx="1569.29" cy="404.02" fill="rgba(53, 53, 53, 1)"></circle><circle r="5" cx="1541.93" cy="549.78" fill="rgba(53, 53, 53, 1)"></circle><circle r="5" cx="1579.53" cy="654.27" fill="rgba(53, 53, 53, 1)"></circle><path d="M58.68 558.32L58.68 558.32" stroke="hsl(0, 0%, 70.9%)" stroke-width="1.5"></path><path d="M58.68 558.32L-38.45 538.29" stroke="hsl(0, 0%, 70.9%)" stroke-width="1.5"></path><path d="M58.68 558.32L96.8 660.54" stroke="hsl(0, 0%, 70.9%)" stroke-width="1.5"></path><path d="M58.68 558.32L227.33 491.75" stroke="hsl(0, 0%, 70.9%)" stroke-width="1.5"></path><path d="M58.68 558.32L-98.97 703.93" stroke="hsl(0, 0%, 70.9%)" stroke-width="1.5"></path><path d="M96.8 660.54L96.8 660.54" stroke="hsl(0, 0%, 70.9%)" stroke-width="1.5"></path><path d="M813.44 686.77L813.44 686.77" stroke="hsl(0, 0%, 70.9%)" stroke-width="1.5"></path><path d="M813.44 686.77L955.23 655.53" stroke="hsl(0, 0%, 70.9%)" stroke-width="1.5"></path><path d="M813.44 686.77L842.56 512.67" stroke="hsl(0, 0%, 70.9%)" stroke-width="1.5"></path><path d="M813.44 686.77L712.07 518.38" stroke="hsl(0, 0%, 70.9%)" stroke-width="1.5"></path><path d="M813.44 686.77L989.26 505.82" stroke="hsl(0, 0%, 70.9%)" stroke-width="1.5"></path><path d="M989.26 505.82L989.26 505.82" stroke="hsl(0, 0%, 70.9%)" stroke-width="1.5"></path><path d="M989.26 505.82L1108.9 526.29" stroke="hsl(0, 0%, 70.9%)" stroke-width="1.5"></path><path d="M989.26 505.82L965.15 386.79" stroke="hsl(0, 0%, 70.9%)" stroke-width="1.5"></path><path d="M989.26 505.82L842.56 512.67" stroke="hsl(0, 0%, 70.9%)" stroke-width="1.5"></path><path d="M989.26 505.82L955.23 655.53" stroke="hsl(0, 0%, 70.9%)" stroke-width="1.5"></path><path d="M1122.08 676.24L1122.08 676.24" stroke="hsl(0, 0%, 70.9%)" stroke-width="1.5"></path><path d="M1122.08 676.24L1242.63 681.48" stroke="hsl(0, 0%, 70.9%)" stroke-width="1.5"></path><path d="M1122.08 676.24L1108.9 526.29" stroke="hsl(0, 0%, 70.9%)" stroke-width="1.5"></path><path d="M1122.08 676.24L955.23 655.53" stroke="hsl(0, 0%, 70.9%)" stroke-width="1.5"></path><path d="M1309.34 222.9L1309.34 222.9" stroke="hsl(0, 0%, 70.9%)" stroke-width="1.5"></path><path d="M1309.34 222.9L1405.5 242.45" stroke="hsl(0, 0%, 70.9%)" stroke-width="1.5"></path><path d="M1309.34 222.9L1267.96 351.94" stroke="hsl(0, 0%, 70.9%)" stroke-width="1.5"></path><path d="M1309.34 222.9L1263.19 56.06" stroke="hsl(0, 0%, 70.9%)" stroke-width="1.5"></path><path d="M1309.34 222.9L1135.34 202.14" stroke="hsl(0, 0%, 70.9%)" stroke-width="1.5"></path><path d="M1309.34 222.9L1436.15 373.25" stroke="hsl(0, 0%, 70.9%)" stroke-width="1.5"></path><path d="M1309.34 222.9L1454.88 74.96" stroke="hsl(0, 0%, 70.9%)" stroke-width="1.5"></path><path d="M1267.96 351.94L1267.96 351.94" stroke="hsl(0, 0%, 70.9%)" stroke-width="1.5"></path><path d="M1267.96 351.94L1138.75 362.17" stroke="hsl(0, 0%, 70.9%)" stroke-width="1.5"></path><path d="M1267.96 351.94L1297.17 493.62" stroke="hsl(0, 0%, 70.9%)" stroke-width="1.5"></path><path d="M1267.96 351.94L1436.15 373.25" stroke="hsl(0, 0%, 70.9%)" stroke-width="1.5"></path><path d="M1242.63 681.48L1242.63 681.48" stroke="hsl(0, 0%, 70.9%)" stroke-width="1.5"></path><path d="M1242.63 681.48L1297.17 493.62" stroke="hsl(0, 0%, 70.9%)" stroke-width="1.5"></path><path d="M1242.63 681.48L1108.9 526.29" stroke="hsl(0, 0%, 70.9%)" stroke-width="1.5"></path><path d="M1242.63 681.48L955.23 655.53" stroke="hsl(0, 0%, 70.9%)" stroke-width="1.5"></path><path d="M1436.15 373.25L1436.15 373.25" stroke="hsl(0, 0%, 70.9%)" stroke-width="1.5"></path><path d="M1436.15 373.25L1561.31 372.72" stroke="hsl(0, 0%, 70.9%)" stroke-width="1.5"></path><path d="M1436.15 373.25L1405.5 242.45" stroke="hsl(0, 0%, 70.9%)" stroke-width="1.5"></path><path d="M1552.68 87.41L1552.68 87.41" stroke="hsl(0, 0%, 70.9%)" stroke-width="1.5"></path><path d="M1552.68 87.41L1454.88 74.96" stroke="hsl(0, 0%, 70.9%)" stroke-width="1.5"></path><path d="M1552.68 87.41L1603.99 245.15" stroke="hsl(0, 0%, 70.9%)" stroke-width="1.5"></path><path d="M1552.68 87.41L1556.58 -91.64" stroke="hsl(0, 0%, 70.9%)" stroke-width="1.5"></path><path d="M1552.68 87.41L1405.5 242.45" stroke="hsl(0, 0%, 70.9%)" stroke-width="1.5"></path><path d="M1552.68 87.41L1309.34 222.9" stroke="hsl(0, 0%, 70.9%)" stroke-width="1.5"></path><path d="M1552.68 87.41L1561.31 372.72" stroke="hsl(0, 0%, 70.9%)" stroke-width="1.5"></path><path d="M-38.45 538.29L-38.45 538.29" stroke="hsl(0, 0%, 70.9%)" stroke-width="1.5"></path><path d="M-38.45 538.29L-98.97 703.93" stroke="hsl(0, 0%, 70.9%)" stroke-width="1.5"></path><path d="M-38.45 538.29L96.8 660.54" stroke="hsl(0, 0%, 70.9%)" stroke-width="1.5"></path><path d="M-38.45 538.29L227.33 491.75" stroke="hsl(0, 0%, 70.9%)" stroke-width="1.5"></path><path d="M-98.97 703.93L-98.97 703.93" stroke="hsl(0, 0%, 70.9%)" stroke-width="1.5"></path><path d="M-98.97 703.93L96.8 660.54" stroke="hsl(0, 0%, 70.9%)" stroke-width="1.5"></path><path d="M-98.97 703.93L253.21 705.84" stroke="hsl(0, 0%, 70.9%)" stroke-width="1.5"></path><path d="M-98.97 703.93L227.33 491.75" stroke="hsl(0, 0%, 70.9%)" stroke-width="1.5"></path><path d="M227.33 491.75L227.33 491.75" stroke="hsl(0, 0%, 70.9%)" stroke-width="1.5"></path><path d="M227.33 491.75L386.11 529.99" stroke="hsl(0, 0%, 70.9%)" stroke-width="1.5"></path><path d="M253.21 705.84L253.21 705.84" stroke="hsl(0, 0%, 70.9%)" stroke-width="1.5"></path><path d="M253.21 705.84L383.86 683.69" stroke="hsl(0, 0%, 70.9%)" stroke-width="1.5"></path><path d="M253.21 705.84L96.8 660.54" stroke="hsl(0, 0%, 70.9%)" stroke-width="1.5"></path><path d="M386.11 529.99L386.11 529.99" stroke="hsl(0, 0%, 70.9%)" stroke-width="1.5"></path><path d="M386.11 529.99L383.86 683.69" stroke="hsl(0, 0%, 70.9%)" stroke-width="1.5"></path><path d="M383.86 683.69L383.86 683.69" stroke="hsl(0, 0%, 70.9%)" stroke-width="1.5"></path><path d="M383.86 683.69L542.17 640.18" stroke="hsl(0, 0%, 70.9%)" stroke-width="1.5"></path><path d="M383.86 683.69L546.2 502.86" stroke="hsl(0, 0%, 70.9%)" stroke-width="1.5"></path><path d="M383.86 683.69L227.33 491.75" stroke="hsl(0, 0%, 70.9%)" stroke-width="1.5"></path><path d="M383.86 683.69L96.8 660.54" stroke="hsl(0, 0%, 70.9%)" stroke-width="1.5"></path><path d="M546.2 502.86L546.2 502.86" stroke="hsl(0, 0%, 70.9%)" stroke-width="1.5"></path><path d="M546.2 502.86L542.17 640.18" stroke="hsl(0, 0%, 70.9%)" stroke-width="1.5"></path><path d="M546.2 502.86L386.11 529.99" stroke="hsl(0, 0%, 70.9%)" stroke-width="1.5"></path><path d="M546.2 502.86L648.39 374.15" stroke="hsl(0, 0%, 70.9%)" stroke-width="1.5"></path><path d="M546.2 502.86L712.07 518.38" stroke="hsl(0, 0%, 70.9%)" stroke-width="1.5"></path><path d="M542.17 640.18L542.17 640.18" stroke="hsl(0, 0%, 70.9%)" stroke-width="1.5"></path><path d="M542.17 640.18L386.11 529.99" stroke="hsl(0, 0%, 70.9%)" stroke-width="1.5"></path><path d="M648.39 374.15L648.39 374.15" stroke="hsl(0, 0%, 70.9%)" stroke-width="1.5"></path><path d="M648.39 374.15L712.07 518.38" stroke="hsl(0, 0%, 70.9%)" stroke-width="1.5"></path><path d="M712.07 518.38L712.07 518.38" stroke="hsl(0, 0%, 70.9%)" stroke-width="1.5"></path><path d="M712.07 518.38L842.56 512.67" stroke="hsl(0, 0%, 70.9%)" stroke-width="1.5"></path><path d="M712.07 518.38L846.19 382.97" stroke="hsl(0, 0%, 70.9%)" stroke-width="1.5"></path><path d="M846.19 382.97L846.19 382.97" stroke="hsl(0, 0%, 70.9%)" stroke-width="1.5"></path><path d="M846.19 382.97L965.15 386.79" stroke="hsl(0, 0%, 70.9%)" stroke-width="1.5"></path><path d="M846.19 382.97L842.56 512.67" stroke="hsl(0, 0%, 70.9%)" stroke-width="1.5"></path><path d="M846.19 382.97L989.26 505.82" stroke="hsl(0, 0%, 70.9%)" stroke-width="1.5"></path><path d="M842.56 512.67L842.56 512.67" stroke="hsl(0, 0%, 70.9%)" stroke-width="1.5"></path><path d="M842.56 512.67L965.15 386.79" stroke="hsl(0, 0%, 70.9%)" stroke-width="1.5"></path><path d="M965.15 386.79L965.15 386.79" stroke="hsl(0, 0%, 70.9%)" stroke-width="1.5"></path><path d="M955.23 655.53L955.23 655.53" stroke="hsl(0, 0%, 70.9%)" stroke-width="1.5"></path><path d="M955.23 655.53L842.56 512.67" stroke="hsl(0, 0%, 70.9%)" stroke-width="1.5"></path><path d="M955.23 655.53L1108.9 526.29" stroke="hsl(0, 0%, 70.9%)" stroke-width="1.5"></path><path d="M1135.34 202.14L1135.34 202.14" stroke="hsl(0, 0%, 70.9%)" stroke-width="1.5"></path><path d="M1135.34 202.14L1138.75 362.17" stroke="hsl(0, 0%, 70.9%)" stroke-width="1.5"></path><path d="M1135.34 202.14L1263.19 56.06" stroke="hsl(0, 0%, 70.9%)" stroke-width="1.5"></path><path d="M1138.75 362.17L1138.75 362.17" stroke="hsl(0, 0%, 70.9%)" stroke-width="1.5"></path><path d="M1108.9 526.29L1108.9 526.29" stroke="hsl(0, 0%, 70.9%)" stroke-width="1.5"></path><path d="M1261.55 -106.71L1261.55 -106.71" stroke="hsl(0, 0%, 70.9%)" stroke-width="1.5"></path><path d="M1261.55 -106.71L1263.19 56.06" stroke="hsl(0, 0%, 70.9%)" stroke-width="1.5"></path><path d="M1261.55 -106.71L1454.88 74.96" stroke="hsl(0, 0%, 70.9%)" stroke-width="1.5"></path><path d="M1261.55 -106.71L1556.58 -91.64" stroke="hsl(0, 0%, 70.9%)" stroke-width="1.5"></path><path d="M1261.55 -106.71L1309.34 222.9" stroke="hsl(0, 0%, 70.9%)" stroke-width="1.5"></path><path d="M1263.19 56.06L1263.19 56.06" stroke="hsl(0, 0%, 70.9%)" stroke-width="1.5"></path><path d="M1263.19 56.06L1454.88 74.96" stroke="hsl(0, 0%, 70.9%)" stroke-width="1.5"></path><path d="M1297.17 493.62L1297.17 493.62" stroke="hsl(0, 0%, 70.9%)" stroke-width="1.5"></path><path d="M1297.17 493.62L1436.15 373.25" stroke="hsl(0, 0%, 70.9%)" stroke-width="1.5"></path><path d="M1297.17 493.62L1108.9 526.29" stroke="hsl(0, 0%, 70.9%)" stroke-width="1.5"></path><path d="M1454.88 74.96L1454.88 74.96" stroke="hsl(0, 0%, 70.9%)" stroke-width="1.5"></path><path d="M1454.88 74.96L1405.5 242.45" stroke="hsl(0, 0%, 70.9%)" stroke-width="1.5"></path><path d="M1454.88 74.96L1556.58 -91.64" stroke="hsl(0, 0%, 70.9%)" stroke-width="1.5"></path><path d="M1454.88 74.96L1603.99 245.15" stroke="hsl(0, 0%, 70.9%)" stroke-width="1.5"></path><path d="M1405.5 242.45L1405.5 242.45" stroke="hsl(0, 0%, 70.9%)" stroke-width="1.5"></path><path d="M1556.58 -91.64L1556.58 -91.64" stroke="hsl(0, 0%, 70.9%)" stroke-width="1.5"></path><path d="M1603.99 245.15L1603.99 245.15" stroke="hsl(0, 0%, 70.9%)" stroke-width="1.5"></path><path d="M1603.99 245.15L1561.31 372.72" stroke="hsl(0, 0%, 70.9%)" stroke-width="1.5"></path><path d="M1603.99 245.15L1405.5 242.45" stroke="hsl(0, 0%, 70.9%)" stroke-width="1.5"></path><path d="M1561.31 372.72L1561.31 372.72" stroke="hsl(0, 0%, 70.9%)" stroke-width="1.5"></path><path d="M1561.31 372.72L1567.13 529.74" stroke="hsl(0, 0%, 70.9%)" stroke-width="1.5"></path><path d="M1561.31 372.72L1405.5 242.45" stroke="hsl(0, 0%, 70.9%)" stroke-width="1.5"></path><path d="M1561.31 372.72L1297.17 493.62" stroke="hsl(0, 0%, 70.9%)" stroke-width="1.5"></path><path d="M1567.13 529.74L1567.13 529.74" stroke="hsl(0, 0%, 70.9%)" stroke-width="1.5"></path><path d="M1567.13 529.74L1607.28 679.93" stroke="hsl(0, 0%, 70.9%)" stroke-width="1.5"></path><path d="M1567.13 529.74L1436.15 373.25" stroke="hsl(0, 0%, 70.9%)" stroke-width="1.5"></path><path d="M1567.13 529.74L1297.17 493.62" stroke="hsl(0, 0%, 70.9%)" stroke-width="1.5"></path><path d="M1567.13 529.74L1603.99 245.15" stroke="hsl(0, 0%, 70.9%)" stroke-width="1.5"></path><path d="M1607.28 679.93L1607.28 679.93" stroke="hsl(0, 0%, 70.9%)" stroke-width="1.5"></path><path d="M1607.28 679.93L1561.31 372.72" stroke="hsl(0, 0%, 70.9%)" stroke-width="1.5"></path><path d="M1607.28 679.93L1436.15 373.25" stroke="hsl(0, 0%, 70.9%)" stroke-width="1.5"></path><circle r="25" cx="58.68" cy="558.32" fill="url(&quot;#SvgjsRadialGradient1015&quot;)"></circle><circle r="25" cx="96.8" cy="660.54" fill="url(&quot;#SvgjsRadialGradient1015&quot;)"></circle><circle r="25" cx="813.44" cy="686.77" fill="url(&quot;#SvgjsRadialGradient1015&quot;)"></circle><circle r="25" cx="989.26" cy="505.82" fill="url(&quot;#SvgjsRadialGradient1015&quot;)"></circle><circle r="25" cx="1122.08" cy="676.24" fill="url(&quot;#SvgjsRadialGradient1015&quot;)"></circle><circle r="25" cx="1309.34" cy="222.9" fill="url(&quot;#SvgjsRadialGradient1015&quot;)"></circle><circle r="25" cx="1267.96" cy="351.94" fill="url(&quot;#SvgjsRadialGradient1015&quot;)"></circle><circle r="25" cx="1242.63" cy="681.48" fill="url(&quot;#SvgjsRadialGradient1015&quot;)"></circle><circle r="25" cx="1436.15" cy="373.25" fill="url(&quot;#SvgjsRadialGradient1015&quot;)"></circle><circle r="25" cx="1552.68" cy="87.41" fill="url(&quot;#SvgjsRadialGradient1015&quot;)"></circle><circle r="5" cx="-38.45" cy="538.29" fill="#c5c5c5"></circle><circle r="5" cx="-98.97" cy="703.93" fill="#c5c5c5"></circle><circle r="5" cx="227.33" cy="491.75" fill="#c5c5c5"></circle><circle r="5" cx="253.21" cy="705.84" fill="#c5c5c5"></circle><circle r="5" cx="386.11" cy="529.99" fill="#c5c5c5"></circle><circle r="5" cx="383.86" cy="683.69" fill="#c5c5c5"></circle><circle r="5" cx="546.2" cy="502.86" fill="#c5c5c5"></circle><circle r="5" cx="542.17" cy="640.18" fill="#c5c5c5"></circle><circle r="5" cx="648.39" cy="374.15" fill="#c5c5c5"></circle><circle r="5" cx="712.07" cy="518.38" fill="#c5c5c5"></circle><circle r="5" cx="846.19" cy="382.97" fill="#c5c5c5"></circle><circle r="5" cx="842.56" cy="512.67" fill="#c5c5c5"></circle><circle r="5" cx="965.15" cy="386.79" fill="#c5c5c5"></circle><circle r="5" cx="955.23" cy="655.53" fill="#c5c5c5"></circle><circle r="5" cx="1135.34" cy="202.14" fill="#c5c5c5"></circle><circle r="5" cx="1138.75" cy="362.17" fill="#c5c5c5"></circle><circle r="5" cx="1108.9" cy="526.29" fill="#c5c5c5"></circle><circle r="5" cx="1261.55" cy="-106.71" fill="#c5c5c5"></circle><circle r="5" cx="1263.19" cy="56.06" fill="#c5c5c5"></circle><circle r="5" cx="1297.17" cy="493.62" fill="#c5c5c5"></circle><circle r="5" cx="1454.88" cy="74.96" fill="#c5c5c5"></circle><circle r="5" cx="1405.5" cy="242.45" fill="#c5c5c5"></circle><circle r="5" cx="1556.58" cy="-91.64" fill="#c5c5c5"></circle><circle r="5" cx="1603.99" cy="245.15" fill="#c5c5c5"></circle><circle r="5" cx="1561.31" cy="372.72" fill="#c5c5c5"></circle><circle r="5" cx="1567.13" cy="529.74" fill="#c5c5c5"></circle><circle r="5" cx="1607.28" cy="679.93" fill="#c5c5c5"></circle></g><defs><mask id="SvgjsMask1014"><rect width="1440" height="560" fill="#ffffff"></rect></mask><radialGradient id="SvgjsRadialGradient1015"><stop stop-color="#ffffff" offset="0.1"></stop><stop stop-color="rgba(139, 139, 139, 1)" offset="0.2"></stop><stop stop-color="rgba(139, 139, 139, 0)" offset="1"></stop></radialGradient></defs></svg>