<svg xmlns="http://www.w3.org/2000/svg" version="1.1" xmlns:xlink="http://www.w3.org/1999/xlink" xmlns:svgjs="http://svgjs.dev/svgjs" width="1440" height="560" preserveAspectRatio="none" viewBox="0 0 1440 560"><g mask="url(&quot;#SvgjsMask1106&quot;)" fill="none"><rect width="1440" height="560" x="0" y="0" fill="rgba(31, 31, 31, 1)"></rect><path d="M -114.41497578098814,248 C -73.21,262 9.19,323.6 91.58502421901186,318 C 173.99,312.4 215.19,216.2 297.58502421901187,220 C 379.99,223.8 421.19,334.8 503.58502421901187,337 C 585.99,339.2 627.19,237.4 709.5850242190119,231 C 791.99,224.6 833.19,299.2 915.5850242190119,305 C 997.99,310.8 1039.19,262.2 1121.5850242190118,260 C 1203.99,257.8 1245.19,293.2 1327.5850242190118,294 C 1409.99,294.8 1511.1,258.4 1533.5850242190118,264 C 1556.07,269.6 1458.72,310.4 1440,322" stroke="rgba(195, 195, 195, 0.58)" stroke-width="2"></path><path d="M -148.41459969925936,278 C -107.21,284.6 -24.81,314.6 57.58540030074065,311 C 139.99,307.4 181.19,264.2 263.5854003007407,260 C 345.99,255.8 387.19,291.6 469.5854003007407,290 C 551.99,288.4 593.19,246.6 675.5854003007406,252 C 757.99,257.4 799.19,322.6 881.5854003007406,317 C 963.99,311.4 1005.19,226.6 1087.5854003007407,224 C 1169.99,221.4 1211.19,303 1293.5854003007407,304 C 1375.99,305 1470.3,232.6 1499.5854003007407,229 C 1528.87,225.4 1451.92,274.6 1440,286" stroke="rgba(195, 195, 195, 0.58)" stroke-width="2"></path><path d="M -229.55607829613282,293 C -188.36,277.8 -105.96,208.2 -23.556078296132814,217 C 58.84,225.8 100.04,337.2 182.44392170386718,337 C 264.84,336.8 306.04,214.6 388.4439217038672,216 C 470.84,217.4 512.04,341.6 594.4439217038672,344 C 676.84,346.4 718.04,229.6 800.4439217038672,228 C 882.84,226.4 924.04,336.6 1006.4439217038672,336 C 1088.84,335.4 1130.04,228.2 1212.443921703867,225 C 1294.84,221.8 1372.93,318.6 1418.443921703867,320 C 1463.96,321.4 1435.69,249.6 1440,232" stroke="rgba(195, 195, 195, 0.58)" stroke-width="2"></path></g><defs><mask id="SvgjsMask1106"><rect width="1440" height="560" fill="#ffffff"></rect></mask></defs></svg>